<?xml version="1.0" encoding="utf-8"?>
<svg viewBox="0 0 500 500" xmlns="http://www.w3.org/2000/svg">
  <g class="signage-logo" opacity="1" transform="matrix(1.130908, 0, 0, 1.130908, -277.286896, -37.240761)" style="">
    <g id="SvgjsG1008" transform="scale(1.228947681139067)" opacity="1">
      <g id="SvgjsG1009" class="sRG_OBCOn" transform="matrix(3.977893, 0, 0, 3.977893, 180.837555, 7.28824)" light-content="false" non-strokable="false" fill="#a55e3f" style="">
        <path d="M94.013 82.058c-4.473 0-8.423-3.168-9.393-7.533l-.464-2.095h-2.293l-.464 2.095c-.97 4.365-4.92 7.533-9.393 7.533-.077 0-.152-.008-.229-.01l11.438-30.077-9.394-4.99v-20.59H61.75v-11.75h-23.5v11.75H26.178v20.59l-9.394 4.99 11.438 30.077c-.076.002-.152.01-.229.01-4.473 0-8.423-3.168-9.393-7.533l-.464-2.095h-2.293l-.464 2.095c-.97 4.365-4.92 7.533-9.393 7.533-.417 0-.824-.035-1.229-.087v3.326c.405.038.814.063 1.229.063 4.547 0 8.691-2.438 11.003-6.167 2.312 3.729 6.456 6.167 11.003 6.167 4.548 0 8.692-2.438 11.004-6.167 2.311 3.729 6.455 6.167 11.003 6.167s8.692-2.438 11.003-6.167c2.312 3.729 6.456 6.167 11.004 6.167 4.547 0 8.691-2.438 11.003-6.167 2.312 3.729 6.456 6.167 11.003 6.167.414 0 .823-.024 1.229-.063v-3.326a9.764 9.764 0 0 1-1.228.087zM42.25 18.641h15.5v7.75h-15.5v-7.75zm-12.072 11.75h39.644v14.465L50 34.325l-19.822 10.53V30.391zm32.436 44.133l-.465-2.095h-2.293l-.464 2.095c-.97 4.365-4.919 7.533-9.393 7.533s-8.423-3.168-9.393-7.533l-.464-2.095h-2.293l-.465 2.095c-.65 2.932-2.649 5.318-5.245 6.572L21.777 53.848 50 38.854l28.223 14.993-10.364 27.25c-2.595-1.254-4.594-3.641-5.245-6.573z"/>
      </g>
    </g>
  </g>
</svg>